<?xml version="1.0" encoding="UTF-8"?>
<svg width="72px" height="36px" viewBox="0 0 72 36" version="1.1" xmlns="http://www.w3.org/2000/svg" xmlns:xlink="http://www.w3.org/1999/xlink">
    <title>599D0DF4-1A24-497E-B8EC-305D9213FB76</title>
    <g id="Page-1" stroke="none" stroke-width="1" fill="none" fill-rule="evenodd">
        <g id="Teip-Marketing-Site-Home-RSP" transform="translate(-124.000000, -29.000000)" fill="#FFFFFF">
            <g id="Teip-Logo" transform="translate(124.000000, 29.000000)">
                <path d="M71.4780751,16.3337115 C72.0800447,19.4171714 71.6581725,22.3591652 69.8966714,25.0032038 C68.3239025,27.3618065 66.0776185,28.6825739 63.3268149,29.1282546 C61.2889998,29.4587595 59.3116284,29.2534459 57.4378747,28.3182674 C57.2318728,28.2156106 57.0308051,28.1029385 56.7754615,27.9664801 L56.7754615,35.6719999 L50.1759999,35.6719999 L50.1759999,8.85103208 L54.7376464,8.85103208 L54.8721028,9.10767409 C55.087973,9.54584338 55.3235799,9.97274545 55.5604204,10.4246858 C56.468309,9.64850018 57.4428089,9.07262055 58.5357291,8.71832939 C63.4390674,7.12589702 70.1236435,9.38810244 71.4780751,16.3337115 Z M24.9915644,8.54060823 C28.0449044,7.89015008 30.9849714,8.23763818 33.6733202,9.87243985 C36.4094955,11.534447 37.9223211,13.9990156 38.3351387,17.1239353 C38.4710664,18.1466138 38.4169471,19.1680557 38.3099669,20.226596 L38.3099669,20.226596 L23.607115,20.226596 C23.7078023,20.9005498 23.9393829,21.496597 24.310667,22.03576 C25.0557525,23.1190325 26.1368815,23.5765791 27.431971,23.6050212 C28.9447965,23.6371731 30.2424031,23.2105418 31.1208991,21.9034425 C31.1662084,21.8354288 31.2832573,21.777308 31.3688414,21.777308 C33.5411682,21.7711249 35.7134951,21.7748348 37.8858219,21.7760714 L37.8858219,21.7760714 L38.054473,21.7760714 L38.0381114,21.8131698 L38.0381114,21.815643 L37.8635016,22.2305844 C37.692707,22.6460282 37.527753,23.0606026 37.3181977,23.4529179 C35.6958748,26.4863282 33.105696,28.2299518 29.7087608,28.8148695 C27.2456996,29.2390276 24.8405335,28.9818122 22.5851397,27.8713342 C19.5041107,26.3527741 17.6665688,23.8906787 17.0536354,20.567901 C16.5980257,18.1033324 16.9177076,15.7253266 18.142316,13.5142635 C19.6337455,10.8246314 21.9633961,9.18364671 24.9915644,8.54060823 Z M47.0399999,8.62399998 L47.0399999,28.2239999 L40.3759999,28.2239999 L40.3759999,8.62399998 L47.0399999,8.62399998 Z M10.1027196,3.13599999 L10.1027196,8.77142803 L14.9740934,8.77142803 L14.9740934,13.9850315 L10.2857982,13.9850315 C10.2796131,14.1071386 10.2684799,14.2095112 10.2684799,14.3131173 C10.2672429,16.2174948 10.2660059,18.1218723 10.2697169,20.0262498 C10.2709539,20.25813 10.2796131,20.4937104 10.3253827,20.7206569 C10.5319646,21.7283489 11.2964412,22.3561521 12.3639871,22.3820536 C12.5526734,22.3863294 13.1994245,22.3887524 14.0860169,22.3901254 L14.511449,22.3906875 C15.160883,24.7181229 16.3323383,26.6693699 18.032,28.2234603 C14.8207033,28.2246937 11.1319179,28.2246937 10.2276583,28.2135931 C8.99435218,28.1987922 7.80557863,27.9508778 6.7182405,27.3440425 C4.88374397,26.3203162 3.95845509,24.6897546 3.66157096,22.6682036 C3.57992782,22.1094711 3.55889853,21.5384045 3.55518748,20.9722716 C3.54405432,18.7743436 3.55147643,16.5764157 3.55147643,14.3784877 L3.55147643,14.3784877 L3.55147643,13.9850315 L0,13.9850315 L0,11.9918488 L8.10988487,3.13599999 L10.1027196,3.13599999 Z M60.6315207,14.222982 C58.1335937,14.2279952 56.2721754,16.1621996 56.2820047,18.7411388 C56.2931457,21.3325971 58.1594981,23.260542 60.6450897,23.2456062 C63.1479509,23.2304961 65.0032015,21.277513 64.9822312,18.681047 C64.9624945,16.1371613 63.0899744,14.2192318 60.6315207,14.222982 Z M31.6759374,16.5006826 C31.2303965,14.8448585 29.8686018,13.3745263 27.2431824,13.5291029 C25.5189137,13.6305051 23.9456758,14.9388411 23.739267,16.5006826 L23.739267,16.5006826 Z M43.7079999,0 C45.5487996,0 47.0399999,1.4912003 47.0399999,3.33199999 C47.0399999,5.17279968 45.5487996,6.66399999 43.7079999,6.66399999 C41.8672002,6.66399999 40.3759999,5.17279968 40.3759999,3.33199999 C40.3759999,1.4912003 41.8672002,0 43.7079999,0 Z" id="Teip"></path>
            </g>
        </g>
    </g>
</svg>